<svg width="255" height="104" viewBox="0 0 255 104" fill="none" xmlns="http://www.w3.org/2000/svg">
<path d="M30.4161 28.3597V39.5612H26.86V14.6688H41.4043V17.8693H30.4161V25.1592H89.1184V28.3597H30.4161Z" fill="#EFE700"/>
<path d="M90.3542 28.3594V36.3605H100.987V39.561H86.7981V14.6686H100.987V17.869H90.3542V25.159H98.8532V28.3594H90.3542Z" fill="#EFE700"/>
<path d="M158.639 13.3859L167.529 38.2783H164.044L161.946 32.3752H150.922L146.034 46.0191H142.549L154.229 13.3859H158.639ZM156.399 16.9064L152.06 29.1748H160.808L156.47 16.9064H156.399Z" fill="#EFE700"/>
<path d="M219.761 29.6396L214.391 29.6396L214.391 39.561L210.835 39.561L210.835 14.6686L223.601 14.6686L227.726 17.0511L227.726 27.257L223.601 29.6396L229.326 39.561L225.379 39.561L219.761 29.6396ZM214.391 17.869L214.391 26.4391L224.17 26.4391L224.17 17.869L214.391 17.869Z" fill="#EFE700"/>
<path d="M69.7887 81.1196V86.8804H66.3037V81.1196H53.9998V78.0614L66.5171 61.988H69.7887V78.0258H72.9891V81.1196H69.7887ZM57.6981 78.0258H66.3037V67.0731H66.2326L57.6981 77.9547V78.0258Z" fill="#EFE700"/>
<path d="M136.288 84.6756L132.163 87.0582H123.166L119.041 84.6756V64.1927L123.166 61.8102H132.163L136.288 64.1927V84.6756ZM122.597 65.0106V83.8578H132.732V65.0106H122.597Z" fill="#EFE700"/>
<path d="M197.773 81.1196V86.8804H194.289V81.1196H181.985V78.0614L194.502 61.988H197.773V78.0258H200.974V81.1196H197.773ZM185.683 78.0258H194.289V67.0731H194.217L185.683 77.9547V78.0258Z" fill="#EFE700"/>
<path d="M48.5793 1.64242V0.870866L50.0307 0.0381956H50.6418V4.69809H51.9405V5.38562H48.5793V4.69809H49.8779V0.893784L48.5793 1.64242Z" fill="#EFE700"/>
<path d="M53.2416 1.64242V0.870866L54.693 0.0381956H55.3041V4.69809H56.6028V5.38562H53.2416V4.69809H54.5402V0.893784L53.2416 1.64242Z" fill="#EFE700"/>
<path d="M61.6088 4.91199L60.7227 5.42382H58.79L57.9038 4.91199V0.511825L58.79 0H60.7227L61.6088 0.511825V4.91199ZM58.6678 0.687526V4.73629H60.8449V0.687526H58.6678Z" fill="#EFE700"/>
<path d="M66.9948 4.91199L66.1086 5.42382H64.1759L63.2898 4.91199V0.511825L64.1759 0H66.1086L66.9948 0.511825V4.91199ZM64.0537 0.687526V4.73629H66.2308V0.687526H64.0537Z" fill="#EFE700"/>
<path d="M68.6757 1.64242V0.870866L70.1271 0.0381956H70.7382V4.69809H72.0369V5.38562H68.6757V4.69809H69.9743V0.893784L68.6757 1.64242Z" fill="#EFE700"/>
<path d="M73.338 1.64242V0.870866L74.7894 0.0381956H75.4005V4.69809H76.6992V5.38562H73.338V4.69809H74.6366V0.893784L73.338 1.64242Z" fill="#EFE700"/>
<path d="M81.7052 4.91199L80.8191 5.42382H78.8864L78.0002 4.91199V0.511825L78.8864 0H80.8191L81.7052 0.511825V4.91199ZM78.7642 0.687526V4.73629H80.9413V0.687526H78.7642Z" fill="#EFE700"/>
<path d="M83.3862 1.64242V0.870866L84.8376 0.0381956H85.4487V4.69809H86.7474V5.38562H83.3862V4.69809H84.6848V0.893784L83.3862 1.64242Z" fill="#EFE700"/>
<path d="M88.0484 1.64242V0.870866L89.4999 0.0381956H90.111V4.69809H91.4097V5.38562H88.0484V4.69809H89.3471V0.893784L88.0484 1.64242Z" fill="#EFE700"/>
<path d="M96.4157 4.91199L95.5296 5.42382H93.5969L92.7107 4.91199V0.511825L93.5969 0H95.5296L96.4157 0.511825V4.91199ZM93.4746 0.687526V4.73629H95.6518V0.687526H93.4746Z" fill="#EFE700"/>
<path d="M101.802 4.91199L100.915 5.42382H98.9828L98.0966 4.91199V0.511825L98.9828 0H100.915L101.802 0.511825V4.91199ZM98.8606 0.687526V4.73629H101.038V0.687526H98.8606Z" fill="#EFE700"/>
<path d="M103.483 1.64242V0.870866L104.934 0.0381956H105.545V4.69809H106.844V5.38562H103.483V4.69809H104.781V0.893784L103.483 1.64242Z" fill="#EFE700"/>
<path d="M111.85 4.91199L110.964 5.42382H109.031L108.145 4.91199V0.511825L109.031 0H110.964L111.85 0.511825V4.91199ZM108.909 0.687526V4.73629H111.086V0.687526H108.909Z" fill="#EFE700"/>
<path d="M113.531 1.64242V0.870866L114.982 0.0381956H115.593V4.69809H116.892V5.38562H113.531V4.69809H114.829V0.893784L113.531 1.64242Z" fill="#EFE700"/>
<path d="M118.193 1.64242V0.870866L119.644 0.0381956H120.256V4.69809H121.554V5.38562H118.193V4.69809H119.492V0.893784L118.193 1.64242Z" fill="#EFE700"/>
<path d="M122.855 1.64242V0.870866L124.307 0.0381956H124.918V4.69809H126.217V5.38562H122.855V4.69809H124.154V0.893784L122.855 1.64242Z" fill="#EFE700"/>
<path d="M131.223 4.91199L130.336 5.42382H128.404L127.518 4.91199V0.511825L128.404 0H130.336L131.223 0.511825V4.91199ZM128.282 0.687526V4.73629H130.459V0.687526H128.282Z" fill="#EFE700"/>
<path d="M136.609 4.91199L135.722 5.42382H133.79L132.904 4.91199V0.511825L133.79 0H135.722L136.609 0.511825V4.91199ZM133.667 0.687526V4.73629H135.845V0.687526H133.667Z" fill="#EFE700"/>
<path d="M141.994 4.91199L141.108 5.42382H139.176L138.289 4.91199V0.511825L139.176 0H141.108L141.994 0.511825V4.91199ZM139.053 0.687526V4.73629H141.231V0.687526H139.053Z" fill="#EFE700"/>
<path d="M147.38 4.91199L146.494 5.42382H144.562L143.675 4.91199V0.511825L144.562 0H146.494L147.38 0.511825V4.91199ZM144.439 0.687526V4.73629H146.616V0.687526H144.439Z" fill="#EFE700"/>
<path d="M149.061 1.64242V0.870866L150.513 0.0381956H151.124V4.69809H152.423V5.38562H149.061V4.69809H150.36V0.893784L149.061 1.64242Z" fill="#EFE700"/>
<path d="M153.724 1.64242V0.870866L155.175 0.0381956H155.786V4.69809H157.085V5.38562H153.724V4.69809H155.022V0.893784L153.724 1.64242Z" fill="#EFE700"/>
<path d="M158.386 1.64242V0.870866L159.837 0.0381956H160.448V4.69809H161.747V5.38562H158.386V4.69809H159.685V0.893784L158.386 1.64242Z" fill="#EFE700"/>
<path d="M163.048 1.64242V0.870866L164.5 0.0381956H165.111V4.69809H166.409V5.38562H163.048V4.69809H164.347V0.893784L163.048 1.64242Z" fill="#EFE700"/>
<path d="M171.415 4.91199L170.529 5.42382H168.597L167.71 4.91199V0.511825L168.597 0H170.529L171.415 0.511825V4.91199ZM168.474 0.687526V4.73629H170.652V0.687526H168.474Z" fill="#EFE700"/>
<path d="M176.801 4.91199L175.915 5.42382H173.982L173.096 4.91199V0.511825L173.982 0H175.915L176.801 0.511825V4.91199ZM173.86 0.687526V4.73629H176.037V0.687526H173.86Z" fill="#EFE700"/>
<path d="M178.482 1.64242V0.870866L179.934 0.0381956H180.545V4.69809H181.843V5.38562H178.482V4.69809H179.781V0.893784L178.482 1.64242Z" fill="#EFE700"/>
<path d="M186.85 4.91199L185.963 5.42382H184.031L183.145 4.91199V0.511825L184.031 0H185.963L186.85 0.511825V4.91199ZM183.908 0.687526V4.73629H186.086V0.687526H183.908Z" fill="#EFE700"/>
<path d="M188.53 1.64242V0.870866L189.982 0.0381956H190.593V4.69809H191.892V5.38562H188.53V4.69809H189.829V0.893784L188.53 1.64242Z" fill="#EFE700"/>
<path d="M196.898 4.91199L196.012 5.42382H194.079L193.193 4.91199V0.511825L194.079 0H196.012L196.898 0.511825V4.91199ZM193.957 0.687526V4.73629H196.134V0.687526H193.957Z" fill="#EFE700"/>
<path d="M198.579 1.64242V0.870866L200.03 0.0381956H200.641V4.69809H201.94V5.38562H198.579V4.69809H199.877V0.893784L198.579 1.64242Z" fill="#EFE700"/>
<path d="M206.946 4.91199L206.06 5.42382H204.127L203.241 4.91199V0.511825L204.127 0H206.06L206.946 0.511825V4.91199ZM204.005 0.687526V4.73629H206.182V0.687526H204.005Z" fill="#EFE700"/>
<path d="M204.32 96.1627H205.377V102.91L204.151 103.619H201.055L199.829 102.91V96.1627H200.886V102.561H204.32V96.1627Z" fill="#EFE700"/>
<path d="M189.421 99.6529V96.8185L190.647 96.1099H193.109L194.335 96.8185V97.9078H193.278V97.0617H190.478V99.3038H193.109L194.335 100.012V102.91L193.109 103.619H190.541L189.315 102.91V101.821H190.372V102.667H193.278V100.361H190.647L189.421 99.6529Z" fill="#EFE700"/>
<path d="M179.43 100.235V102.614H182.59V103.566H178.374V96.1627H182.59V97.1146H179.43V99.2827H181.956V100.235H179.43Z" fill="#EFE700"/>
<path d="M168.864 100.615H167.268V103.566H166.211V96.1627H170.005L171.231 96.8713V99.9067L170.005 100.615L171.706 103.566H170.533L168.864 100.615ZM167.268 97.1146V99.6634H170.174V97.1146H167.268Z" fill="#EFE700"/>
<path d="M141.221 97.9713V103.566H140.164V96.1627H141.125L144.951 101.757H144.972V96.1627H146.029V103.566H145.067L141.242 97.9713H141.221Z" fill="#EFE700"/>
<path d="M135.624 102.91L134.398 103.619H131.302L130.076 102.91V96.8185L131.302 96.1099H134.398L135.624 96.8185V102.91ZM131.133 97.0617V102.667H134.567V97.0617H131.133Z" fill="#EFE700"/>
<path d="M122.194 97.1146V103.566H121.137V97.1146H119.034V96.1627H124.297V97.1146H122.194Z" fill="#EFE700"/>
<path d="M93.6454 100.235V103.566H92.5887V96.1627H96.9106V97.1146H93.6454V99.2827H96.2766V100.235H93.6454Z" fill="#EFE700"/>
<path d="M85.8711 102.91L84.6453 103.619H81.5492L80.3234 102.91V96.8185L81.5492 96.1099H84.6453L85.8711 96.8185V102.91ZM81.3801 97.0617V102.667H84.8144V97.0617H81.3801Z" fill="#EFE700"/>
<path d="M74.4066 96.1627H75.4633V102.91L74.2376 103.619H71.1414L69.9156 102.91V96.1627H70.9723V102.561H74.4066V96.1627Z" fill="#EFE700"/>
<path d="M60.5645 97.9713V103.566H59.5078V96.1627H60.4694L64.2947 101.757H64.3158V96.1627H65.3726V103.566H64.4109L60.5856 97.9713H60.5645Z" fill="#EFE700"/>
<path d="M54.9676 102.857L53.7419 103.566H49.4199V96.1627H53.7419L54.9676 96.8713V102.857ZM50.4766 97.1146V102.614H53.9109V97.1146H50.4766Z" fill="#EFE700"/>
<rect x="21.1346" y="8.644" width="213.257" height="37.6483" stroke="#EFE700" stroke-width="2.31047"/>
<rect x="-1.15523" y="1.15523" width="213.257" height="37.6483" transform="matrix(-1 0 0 1 233.236 54.2826)" stroke="#EFE700" stroke-width="2.31047"/>
<rect x="16.8248" y="3.28271" width="30.4948" height="2.10309" fill="#EFE700"/>
<rect x="15.7731" y="96.3445" width="31.5464" height="2.10309" fill="#EFE700"/>
<rect x="17.8765" y="3.28271" width="94.6392" height="2.10309" transform="rotate(90 17.8765 3.28271)" fill="#EFE700"/>
<rect x="238.701" y="98.4474" width="30.4948" height="2.10309" transform="rotate(-180 238.701 98.4474)" fill="#EFE700"/>
<rect x="239.753" y="5.38574" width="31.5464" height="2.10309" transform="rotate(-180 239.753 5.38574)" fill="#EFE700"/>
<rect x="237.649" y="98.4474" width="94.6392" height="2.10309" transform="rotate(-90 237.649 98.4474)" fill="#EFE700"/>
<rect x="253.845" y="4.43783" width="92.8545" height="10.8339" transform="rotate(90 253.845 4.43783)" stroke="#EFE700" stroke-width="2.31047"/>
<rect x="11.9892" y="4.43783" width="92.8545" height="10.8339" transform="rotate(90 11.9892 4.43783)" stroke="#EFE700" stroke-width="2.31047"/>
</svg>
