<svg width="320" height="320" viewBox="0 0 320 320" fill="none" xmlns="http://www.w3.org/2000/svg">
<rect x="2" y="2" width="316" height="316" stroke="#EFE700" stroke-width="4"/>
<path d="M112.883 126.578H101.914V157H97.4375V126.578H86.4922V122.875H112.883V126.578ZM143.539 141.039C143.539 144.383 142.977 147.305 141.852 149.805C140.727 152.289 139.133 154.188 137.07 155.5C135.008 156.812 132.602 157.469 129.852 157.469C127.164 157.469 124.781 156.812 122.703 155.5C120.625 154.172 119.008 152.289 117.852 149.852C116.711 147.398 116.125 144.562 116.094 141.344V138.883C116.094 135.602 116.664 132.703 117.805 130.188C118.945 127.672 120.555 125.75 122.633 124.422C124.727 123.078 127.117 122.406 129.805 122.406C132.539 122.406 134.945 123.07 137.023 124.398C139.117 125.711 140.727 127.625 141.852 130.141C142.977 132.641 143.539 135.555 143.539 138.883V141.039ZM139.062 138.836C139.062 134.789 138.25 131.688 136.625 129.531C135 127.359 132.727 126.273 129.805 126.273C126.961 126.273 124.719 127.359 123.078 129.531C121.453 131.688 120.617 134.688 120.57 138.531V141.039C120.57 144.961 121.391 148.047 123.031 150.297C124.688 152.531 126.961 153.648 129.852 153.648C132.758 153.648 135.008 152.594 136.602 150.484C138.195 148.359 139.016 145.32 139.062 141.367V138.836ZM176.539 141.039C176.539 144.383 175.977 147.305 174.852 149.805C173.727 152.289 172.133 154.188 170.07 155.5C168.008 156.812 165.602 157.469 162.852 157.469C160.164 157.469 157.781 156.812 155.703 155.5C153.625 154.172 152.008 152.289 150.852 149.852C149.711 147.398 149.125 144.562 149.094 141.344V138.883C149.094 135.602 149.664 132.703 150.805 130.188C151.945 127.672 153.555 125.75 155.633 124.422C157.727 123.078 160.117 122.406 162.805 122.406C165.539 122.406 167.945 123.07 170.023 124.398C172.117 125.711 173.727 127.625 174.852 130.141C175.977 132.641 176.539 135.555 176.539 138.883V141.039ZM172.062 138.836C172.062 134.789 171.25 131.688 169.625 129.531C168 127.359 165.727 126.273 162.805 126.273C159.961 126.273 157.719 127.359 156.078 129.531C154.453 131.688 153.617 134.688 153.57 138.531V141.039C153.57 144.961 154.391 148.047 156.031 150.297C157.688 152.531 159.961 153.648 162.852 153.648C165.758 153.648 168.008 152.594 169.602 150.484C171.195 148.359 172.016 145.32 172.062 141.367V138.836ZM187.812 153.32H203.984V157H183.289V122.875H187.812V153.32ZM219.172 141.789C215.312 140.68 212.5 139.32 210.734 137.711C208.984 136.086 208.109 134.086 208.109 131.711C208.109 129.023 209.18 126.805 211.32 125.055C213.477 123.289 216.273 122.406 219.711 122.406C222.055 122.406 224.141 122.859 225.969 123.766C227.812 124.672 229.234 125.922 230.234 127.516C231.25 129.109 231.758 130.852 231.758 132.742H227.234C227.234 130.68 226.578 129.062 225.266 127.891C223.953 126.703 222.102 126.109 219.711 126.109C217.492 126.109 215.758 126.602 214.508 127.586C213.273 128.555 212.656 129.906 212.656 131.641C212.656 133.031 213.242 134.211 214.414 135.18C215.602 136.133 217.609 137.008 220.438 137.805C223.281 138.602 225.5 139.484 227.094 140.453C228.703 141.406 229.891 142.523 230.656 143.805C231.438 145.086 231.828 146.594 231.828 148.328C231.828 151.094 230.75 153.312 228.594 154.984C226.438 156.641 223.555 157.469 219.945 157.469C217.602 157.469 215.414 157.023 213.383 156.133C211.352 155.227 209.781 153.992 208.672 152.43C207.578 150.867 207.031 149.094 207.031 147.109H211.555C211.555 149.172 212.312 150.805 213.828 152.008C215.359 153.195 217.398 153.789 219.945 153.789C222.32 153.789 224.141 153.305 225.406 152.336C226.672 151.367 227.305 150.047 227.305 148.375C227.305 146.703 226.719 145.414 225.547 144.508C224.375 143.586 222.25 142.68 219.172 141.789Z" fill="#EFE700"/>
<path d="M159.204 174.685C159.204 176.217 158.946 177.556 158.431 178.702C157.915 179.841 157.185 180.711 156.239 181.312C155.294 181.914 154.191 182.215 152.931 182.215C151.699 182.215 150.607 181.914 149.654 181.312C148.702 180.704 147.961 179.841 147.431 178.724C146.908 177.599 146.639 176.299 146.625 174.824V173.696C146.625 172.192 146.886 170.864 147.409 169.711C147.932 168.558 148.67 167.677 149.622 167.068C150.582 166.452 151.677 166.145 152.909 166.145C154.162 166.145 155.265 166.449 156.218 167.058C157.177 167.659 157.915 168.536 158.431 169.689C158.946 170.835 159.204 172.171 159.204 173.696V174.685ZM157.152 173.675C157.152 171.82 156.78 170.398 156.035 169.41C155.29 168.415 154.248 167.917 152.909 167.917C151.606 167.917 150.578 168.415 149.826 169.41C149.081 170.398 148.698 171.773 148.677 173.535V174.685C148.677 176.482 149.053 177.896 149.805 178.928C150.564 179.952 151.606 180.464 152.931 180.464C154.263 180.464 155.294 179.98 156.024 179.014C156.755 178.04 157.131 176.647 157.152 174.835V173.675ZM170.924 175.093H164.36V182H162.298V166.359H171.987V168.057H164.36V173.406H170.924V175.093ZM88.3701 208V192.359H92.7852C94.1458 192.359 95.349 192.66 96.3945 193.262C97.4401 193.863 98.2458 194.719 98.8115 195.829C99.3844 196.939 99.6745 198.214 99.6816 199.653V200.652C99.6816 202.128 99.3952 203.42 98.8223 204.53C98.2565 205.64 97.4437 206.493 96.3838 207.087C95.3311 207.681 94.1029 207.986 92.6992 208H88.3701ZM90.4326 194.057V206.313H92.6025C94.1924 206.313 95.4277 205.819 96.3086 204.831C97.1966 203.843 97.6406 202.436 97.6406 200.609V199.696C97.6406 197.92 97.2217 196.542 96.3838 195.561C95.5531 194.572 94.3714 194.071 92.8389 194.057H90.4326ZM111.648 200.771H104.87V206.313H112.744V208H102.808V192.359H112.637V194.057H104.87V199.084H111.648V200.771ZM119.92 201.028C118.151 200.52 116.862 199.897 116.053 199.159C115.251 198.414 114.85 197.498 114.85 196.409C114.85 195.177 115.34 194.16 116.321 193.358C117.31 192.549 118.591 192.145 120.167 192.145C121.241 192.145 122.197 192.352 123.035 192.768C123.88 193.183 124.532 193.756 124.99 194.486C125.456 195.217 125.688 196.015 125.688 196.882H123.615C123.615 195.937 123.314 195.195 122.713 194.658C122.111 194.114 121.263 193.842 120.167 193.842C119.15 193.842 118.355 194.067 117.782 194.519C117.216 194.963 116.934 195.582 116.934 196.377C116.934 197.014 117.202 197.555 117.739 197.999C118.284 198.436 119.204 198.837 120.5 199.202C121.803 199.567 122.82 199.972 123.551 200.416C124.288 200.853 124.833 201.365 125.184 201.952C125.542 202.539 125.721 203.23 125.721 204.025C125.721 205.293 125.227 206.31 124.238 207.076C123.25 207.835 121.929 208.215 120.274 208.215C119.2 208.215 118.198 208.011 117.267 207.603C116.336 207.187 115.616 206.621 115.107 205.905C114.606 205.189 114.355 204.376 114.355 203.467H116.429C116.429 204.412 116.776 205.16 117.471 205.712C118.173 206.256 119.107 206.528 120.274 206.528C121.363 206.528 122.197 206.306 122.777 205.862C123.357 205.418 123.647 204.813 123.647 204.047C123.647 203.281 123.379 202.69 122.842 202.274C122.305 201.852 121.331 201.437 119.92 201.028ZM139.181 194.057H134.153V208H132.102V194.057H127.085V192.359H139.181V194.057ZM147.237 201.673H143.563V208H141.49V192.359H146.668C148.43 192.359 149.783 192.76 150.729 193.562C151.681 194.365 152.157 195.532 152.157 197.064C152.157 198.038 151.892 198.887 151.362 199.61C150.84 200.334 150.109 200.874 149.171 201.232L152.845 207.871V208H150.632L147.237 201.673ZM143.563 199.986H146.732C147.757 199.986 148.569 199.721 149.171 199.191C149.78 198.661 150.084 197.952 150.084 197.064C150.084 196.098 149.794 195.356 149.214 194.841C148.641 194.325 147.81 194.064 146.722 194.057H143.563V199.986ZM166.068 192.359V202.994C166.061 204.469 165.596 205.676 164.672 206.614C163.755 207.552 162.509 208.079 160.934 208.193L160.386 208.215C158.674 208.215 157.31 207.753 156.293 206.829C155.276 205.905 154.76 204.634 154.746 203.016V192.359H156.787V202.951C156.787 204.083 157.099 204.964 157.722 205.594C158.345 206.217 159.233 206.528 160.386 206.528C161.553 206.528 162.445 206.217 163.061 205.594C163.684 204.971 163.995 204.093 163.995 202.962V192.359H166.068ZM180.828 203.037C180.635 204.691 180.022 205.97 178.991 206.872C177.967 207.767 176.603 208.215 174.898 208.215C173.051 208.215 171.568 207.552 170.451 206.228C169.341 204.903 168.786 203.13 168.786 200.91V199.406C168.786 197.952 169.044 196.674 169.56 195.571C170.082 194.468 170.82 193.623 171.772 193.036C172.725 192.442 173.828 192.145 175.081 192.145C176.743 192.145 178.075 192.61 179.077 193.541C180.08 194.465 180.663 195.747 180.828 197.387H178.755C178.576 196.141 178.186 195.238 177.584 194.68C176.99 194.121 176.155 193.842 175.081 193.842C173.763 193.842 172.729 194.329 171.977 195.303C171.232 196.277 170.859 197.662 170.859 199.46V200.975C170.859 202.672 171.214 204.022 171.923 205.024C172.632 206.027 173.624 206.528 174.898 206.528C176.044 206.528 176.922 206.271 177.53 205.755C178.146 205.232 178.554 204.326 178.755 203.037H180.828ZM194.138 194.057H189.11V208H187.059V194.057H182.042V192.359H194.138V194.057ZM198.671 208H196.608V192.359H198.671V208ZM214.483 200.685C214.483 202.217 214.226 203.556 213.71 204.702C213.194 205.841 212.464 206.711 211.519 207.312C210.573 207.914 209.47 208.215 208.21 208.215C206.978 208.215 205.886 207.914 204.934 207.312C203.981 206.704 203.24 205.841 202.71 204.724C202.187 203.599 201.919 202.299 201.904 200.824V199.696C201.904 198.192 202.166 196.864 202.688 195.711C203.211 194.558 203.949 193.677 204.901 193.068C205.861 192.452 206.957 192.145 208.188 192.145C209.442 192.145 210.545 192.449 211.497 193.058C212.457 193.659 213.194 194.536 213.71 195.689C214.226 196.835 214.483 198.171 214.483 199.696V200.685ZM212.432 199.675C212.432 197.82 212.059 196.398 211.314 195.41C210.57 194.415 209.528 193.917 208.188 193.917C206.885 193.917 205.857 194.415 205.105 195.41C204.361 196.398 203.978 197.773 203.956 199.535V200.685C203.956 202.482 204.332 203.896 205.084 204.928C205.843 205.952 206.885 206.464 208.21 206.464C209.542 206.464 210.573 205.98 211.304 205.014C212.034 204.04 212.41 202.647 212.432 200.835V199.675ZM229.598 208H227.524L219.65 195.947V208H217.577V192.359H219.65L227.546 204.466V192.359H229.598V208Z" fill="#EFE700"/>
<line x1="70" y1="174" x2="130" y2="174" stroke="#EFE700" stroke-width="2"/>
<line x1="189" y1="174" x2="249" y2="174" stroke="#EFE700" stroke-width="2"/>
</svg>
